<svg width="79" height="27" viewBox="0 0 79 27" fill="none" xmlns="http://www.w3.org/2000/svg">
<path d="M9.75461 0.000434938C8.70089 0.000723326 7.69043 0.394428 6.94533 1.095C6.20024 1.79557 5.78153 2.74567 5.78122 3.73643V5.43362H3.97618C3.454 5.43321 2.93686 5.52963 2.45435 5.71733C1.97185 5.90504 1.53345 6.18037 1.16422 6.52756C0.794998 6.87473 0.502206 7.28697 0.302595 7.74064C0.102985 8.19434 0.000475699 8.68059 0.000932214 9.17157V12.9062H5.78028V16.3006H3.97525C2.92123 16.3005 1.91032 16.694 1.16484 17.3946C0.419366 18.0952 0.000368188 19.0455 0 20.0366V26.4911H3.97711C4.49879 26.4909 5.01529 26.3941 5.49717 26.206C5.97902 26.0181 6.41677 25.7428 6.78546 25.3957C7.15413 25.0487 7.44648 24.6368 7.64583 24.1834C7.84516 23.7301 7.94759 23.2444 7.94725 22.7539H7.95235V20.2881L7.94171 20.2894V4.57958L7.9505 4.58154V3.73708C7.95141 3.2868 8.14173 2.85513 8.47991 2.53631C8.81806 2.21748 9.27664 2.03739 9.75554 2.03532H16.6584V3.73708C16.657 4.18716 16.466 4.61837 16.1273 4.93641C15.7886 5.25446 15.3298 5.43347 14.8511 5.43427H8.7674V7.47133H14.8501C15.9039 7.47139 16.9144 7.07788 17.6596 6.37737C18.4047 5.67687 18.8234 4.72675 18.8235 3.736V0L9.75461 0.000434938ZM5.78122 10.869H2.16975V9.17177C2.17054 8.72097 2.36108 8.28878 2.69975 7.96966C3.0384 7.65055 3.49765 7.47044 3.97711 7.46872H5.78215L5.78122 10.869ZM5.78122 22.7558C5.78042 23.2058 5.59005 23.6373 5.25177 23.9556C4.91348 24.2741 4.45482 24.4536 3.97618 24.4547H2.16882V20.0377C2.16926 19.5873 2.35989 19.1556 2.6988 18.8373C3.03773 18.519 3.49717 18.3403 3.97618 18.3405H5.78122V22.7558ZM8.7674 12.906H13.3263V14.605C13.3245 15.055 13.1334 15.486 12.7948 15.804C12.4562 16.122 11.9975 16.3011 11.5189 16.3021H8.7674V18.3405H11.5198C12.0417 18.3408 12.5585 18.2443 13.0407 18.0566C13.5229 17.869 13.9611 17.5938 14.3301 17.2468C14.6991 16.8999 14.9918 16.4879 15.1913 16.0345C15.3909 15.5812 15.4935 15.0952 15.4932 14.6045H15.4951V10.8685H8.7674V12.906Z" fill="#6C63FF"/>
<path d="M30.6609 11.29H28.2117V19.5376H25.3821V11.29H23.8235V9.92627L25.3821 9.16553V8.40479C25.3821 7.22347 25.6728 6.36068 26.2542 5.81641C26.8355 5.27214 27.7664 5 29.0466 5C30.0238 5 30.8928 5.14535 31.6536 5.43604L30.9299 7.51416C30.3609 7.3348 29.8352 7.24512 29.3528 7.24512C28.9508 7.24512 28.6601 7.36572 28.4807 7.60693C28.3014 7.84196 28.2117 8.14502 28.2117 8.51611V9.16553H30.6609V11.29Z" fill="#2F2E41"/>
<path d="M39.1414 19.5376L38.761 18.2109H38.6125C38.3095 18.6934 37.8796 19.0675 37.323 19.3335C36.7664 19.5933 36.1324 19.7231 35.4211 19.7231C34.2027 19.7231 33.2843 19.3984 32.6658 18.749C32.0473 18.0934 31.738 17.1533 31.738 15.9287V9.16553H34.5676V15.2236C34.5676 15.972 34.7006 16.5348 34.9666 16.9121C35.2325 17.2832 35.6562 17.4688 36.2375 17.4688C37.0292 17.4688 37.6013 17.2059 37.9539 16.6802C38.3064 16.1483 38.4827 15.27 38.4827 14.0454V9.16553H41.3123V19.5376H39.1414Z" fill="#2F2E41"/>
<path d="M51.0173 16.4575C51.0173 17.5213 50.6462 18.3315 49.9041 18.8882C49.1681 19.4448 48.064 19.7231 46.592 19.7231C45.8375 19.7231 45.1943 19.6706 44.6624 19.5654C44.1305 19.4665 43.6326 19.318 43.1687 19.1201V16.7822C43.6944 17.0296 44.2851 17.2368 44.9407 17.4038C45.6025 17.5708 46.1838 17.6543 46.6848 17.6543C47.7115 17.6543 48.2249 17.3574 48.2249 16.7637C48.2249 16.541 48.1568 16.3617 48.0208 16.2256C47.8847 16.0833 47.6497 15.9256 47.3157 15.7524C46.9817 15.5731 46.5364 15.3659 45.9797 15.1309C45.1819 14.7969 44.5943 14.4876 44.217 14.2031C43.8459 13.9186 43.5738 13.5939 43.4006 13.229C43.2336 12.8579 43.1501 12.4033 43.1501 11.8652C43.1501 10.9437 43.5058 10.2324 44.217 9.73145C44.9345 9.22428 45.9488 8.9707 47.26 8.9707C48.5094 8.9707 49.7247 9.24284 50.906 9.78711L50.0525 11.8281C49.533 11.6055 49.0474 11.423 48.5959 11.2808C48.1444 11.1385 47.6837 11.0674 47.2136 11.0674C46.3787 11.0674 45.9612 11.2931 45.9612 11.7446C45.9612 11.9982 46.0942 12.2178 46.3601 12.4033C46.6322 12.5889 47.2229 12.8641 48.1321 13.229C48.9423 13.5568 49.5361 13.863 49.9133 14.1475C50.2906 14.432 50.5689 14.7598 50.7483 15.1309C50.9277 15.502 51.0173 15.9442 51.0173 16.4575Z" fill="#2F2E41"/>
<path d="M57.0208 10.9839C56.4208 10.9839 55.9508 11.1756 55.6106 11.5591C55.2704 11.9364 55.0756 12.4744 55.0261 13.1733H58.9968C58.9845 12.4744 58.802 11.9364 58.4495 11.5591C58.0969 11.1756 57.6207 10.9839 57.0208 10.9839ZM57.4197 19.7231C55.7498 19.7231 54.4447 19.2624 53.5046 18.3408C52.5645 17.4193 52.0945 16.1143 52.0945 14.4258C52.0945 12.6878 52.5274 11.3457 53.3933 10.3994C54.2654 9.44694 55.4683 8.9707 57.0022 8.9707C58.468 8.9707 59.6091 9.38818 60.4255 10.2231C61.2419 11.0581 61.6501 12.2116 61.6501 13.6836V15.0566H54.9612C54.9921 15.8607 55.2302 16.4884 55.6755 16.9399C56.1208 17.3914 56.7455 17.6172 57.5496 17.6172C58.1742 17.6172 58.7649 17.5522 59.3215 17.4224C59.8782 17.2925 60.4596 17.0853 61.0657 16.8008V18.9902C60.5709 19.2376 60.0421 19.4201 59.4792 19.5376C58.9164 19.6613 58.2299 19.7231 57.4197 19.7231Z" fill="#2F2E41"/>
<path d="M66.2805 19.5376H63.4509V5.10205H66.2805V19.5376Z" fill="#2F2E41"/>
<path d="M67.2742 9.16553H70.3728L72.3303 15.001C72.4973 15.5081 72.6117 16.1081 72.6736 16.8008H72.7292C72.7973 16.1637 72.9303 15.5638 73.1282 15.001L75.0486 9.16553H78.0823L73.6941 20.8643C73.2921 21.9466 72.7169 22.7568 71.9685 23.2949C71.2263 23.833 70.3573 24.1021 69.3616 24.1021C68.873 24.1021 68.3936 24.0495 67.9236 23.9443V21.6992C68.2638 21.7796 68.6348 21.8198 69.0369 21.8198C69.5378 21.8198 69.9739 21.6652 70.345 21.356C70.7222 21.0529 71.016 20.5921 71.2263 19.9736L71.3933 19.4634L67.2742 9.16553Z" fill="#2F2E41"/>
</svg>
